Coordinates
version=1
nRows=32
nColumns=22
inDegrees=yes

Units are S.I. units (second, meters, Newtons, ...)
If the header above contains a line with 'inDegrees', this indicates whether rotational values are in degrees (yes) or radians (no).

endheader
time	pelvis_tilt	pelvis_list	pelvis_rotation	pelvis_tx	pelvis_ty	pelvis_tz	hip_flexion_r	hip_adduction_r	hip_rotation_r	knee_angle_r	ankle_angle_r	subtalar_angle_r	hip_flexion_l	hip_adduction_l	hip_rotation_l	knee_angle_l	ankle_angle_l	subtalar_angle_l	lumbar_extension	lumbar_bending	lumbar_rotation
      0.01000000	     -2.42200541	      1.37993454	    177.17631162	      0.13710213	      1.08892038	      1.17132969	     -3.39451168	      2.38206264	      2.69634863	     -9.84310799	     11.28301299	     -1.25362299	     -3.19951394	      0.25362637	     -2.33185919	    -11.44011014	     12.87957562	     -3.38360740	     -3.08197600	     -1.28420726	     -5.65698456
      0.02000000	     -2.40680174	      1.38293308	    177.16926164	      0.13732113	      1.08892041	      1.17140989	     -3.37440667	      2.37989401	      2.69452415	     -9.82433357	     11.28228077	     -1.25579154	     -3.18050587	      0.25454586	     -2.33342609	    -11.42201975	     12.87964604	     -3.38306493	     -3.12513155	     -1.28512105	     -5.66004697
      0.03000000	     -2.33571459	      1.37283650	    177.15396171	      0.13762685	      1.08884731	      1.17150396	     -3.27092697	      2.36772247	      2.72298476	     -9.84087242	     11.25534792	     -1.36031828	     -3.08826548	      0.26836564	     -2.33593827	    -11.41859250	     12.84935341	     -3.36140722	     -3.11586093	     -1.29559522	     -5.67063188
      0.04000000	     -2.31891094	      1.37403996	    177.14557551	      0.13793438	      1.08884391	      1.17161722	     -3.23430039	      2.36180938	      2.72808713	     -9.84088434	     11.24310621	     -1.36024208	     -3.05711636	      0.27322593	     -2.33033168	    -11.41122701	     12.83920966	     -3.35842080	     -3.17483428	     -1.29544665	     -5.67340206
      0.05000000	     -2.24239735	      1.36345432	    177.13365772	      0.13827262	      1.08875366	      1.17172394	     -3.11837094	      2.34704657	      2.73300991	     -9.86567543	     11.24656114	     -1.35343429	     -2.95332900	      0.28681429	     -2.32827667	    -11.41459090	     12.81758763	     -3.33581778	     -3.16418445	     -1.30756215	     -5.67038927
      0.06000000	     -2.22750433	      1.36613838	    177.12728700	      0.13859938	      1.08874431	      1.17184167	     -3.07644165	      2.34260929	      2.73845019	     -9.87778746	     11.23797662	     -1.35188894	     -2.92171168	      0.29001531	     -2.31405035	    -11.40949436	     12.80777704	     -3.33131090	     -3.22614076	     -1.30378182	     -5.66475155
      0.07000000	     -2.15644122	      1.35347982	    177.11655011	      0.13894372	      1.08864736	      1.17194825	     -2.94918253	      2.32483190	      2.72028428	     -9.93364877	     11.25902155	     -1.33414453	     -2.82446780	      0.30622791	     -2.29837801	    -11.41037450	     12.78244270	     -3.30318401	     -3.21838438	     -1.31549336	     -5.64497826
      0.08000000	     -2.10863589	      1.34740097	    177.11818249	      0.13928936	      1.08856885	      1.17207015	     -2.85017706	      2.31403180	      2.71857976	     -9.98633422	     11.28248048	     -1.31857478	     -2.74066817	      0.31545690	     -2.27416099	    -11.43394819	     12.79836683	     -3.29033759	     -3.23789416	     -1.31737856	     -5.63851325
      0.09000000	     -2.07232371	      1.33591307	    177.12162711	      0.13961985	      1.08850492	      1.17218921	     -2.75505252	      2.29745931	      2.70989490	    -10.05562764	     11.30461978	     -1.30581953	     -2.67354879	      0.33102853	     -2.24673413	    -11.44862039	     12.78710523	     -3.28100118	     -3.26549956	     -1.32442962	     -5.62373645
      0.10000000	     -2.07060251	      1.33199980	    177.13320498	      0.13992649	      1.08848770	      1.17229673	     -2.70652773	      2.29021350	      2.73261081	    -10.11171440	     11.30523410	     -1.30296013	     -2.64143185	      0.33824100	     -2.21593021	    -11.47034265	     12.78728021	     -3.28022694	     -3.33033085	     -1.32620208	     -5.61771843
      0.11000000	     -1.98942041	      1.29529570	    177.15608665	      0.14024803	      1.08833476	      1.17244377	     -2.53347522	      2.25042969	      2.69748457	    -10.23956956	     11.38258298	     -1.27008615	     -2.50559481	      0.37730320	     -2.17408169	    -11.51989924	     12.79585589	     -3.28607260	     -3.29661844	     -1.35504082	     -5.61831841
      0.12000000	     -1.98815550	      1.28677957	    177.17286617	      0.14050787	      1.08829762	      1.17256838	     -2.45720446	      2.23844717	      2.68997623	    -10.35433968	     11.42348518	     -1.26510940	     -2.47364504	      0.39110128	     -2.13609912	    -11.54665764	     12.81768416	     -3.29439674	     -3.34986435	     -1.35518334	     -5.59487970
      0.13000000	     -1.97586737	      1.25972568	    177.20316356	      0.14075493	      1.08823393	      1.17270626	     -2.36195052	      2.20842279	      2.67526390	    -10.48434191	     11.49039399	     -1.25419403	     -2.41830224	      0.42290089	     -2.09332469	    -11.59242124	     12.83712290	     -3.31127866	     -3.38665101	     -1.37599922	     -5.59063328
      0.14000000	     -1.96067407	      1.23311523	    177.24048065	      0.14096553	      1.08816563	      1.17285568	     -2.26232291	      2.18014048	      2.66613340	    -10.62181954	     11.55113327	     -1.24057910	     -2.35663584	      0.45444783	     -2.04335485	    -11.64753929	     12.85492435	     -3.33637707	     -3.41244036	     -1.39309614	     -5.59274029
      0.15000000	     -1.92618162	      1.20006939	    177.28758338	      0.14116796	      1.08806987	      1.17302010	     -2.14019003	      2.14676641	      2.66129545	    -10.76343880	     11.60717485	     -1.21729868	     -2.26482409	      0.49158302	     -1.98713528	    -11.71785343	     12.86258236	     -3.38140741	     -3.41285427	     -1.41431203	     -5.61435817
      0.16000000	     -1.94051826	      1.18256362	    177.32386529	      0.14130732	      1.08803558	      1.17316093	     -2.07515082	      2.12794759	      2.66366689	    -10.90353405	     11.67292887	     -1.21292556	     -2.23704014	      0.51517701	     -1.93955632	    -11.77749375	     12.89782945	     -3.40514243	     -3.46337562	     -1.42098872	     -5.60281632
      0.17000000	     -1.94472525	      1.15014949	    177.37055905	      0.14143181	      1.08798321	      1.17332691	     -1.99920981	      2.09283179	      2.65863384	    -11.04469898	     11.75258254	     -1.20231524	     -2.19091927	      0.55479094	     -1.88296941	    -11.84831711	     12.92273336	     -3.43748530	     -3.49926184	     -1.44112201	     -5.61169870
      0.18000000	     -1.91657106	      1.11232378	    177.42757102	      0.14153357	      1.08789174	      1.17350618	     -1.89090965	      2.05381154	      2.64715360	    -11.18457128	     11.81246162	     -1.17009484	     -2.10364719	      0.59899122	     -1.80581198	    -11.93122497	     12.92052498	     -3.49367927	     -3.49236988	     -1.46563741	     -5.63788145
      0.19000000	     -1.93473924	      1.09209905	    177.46958538	      0.14158411	      1.08785991	      1.17366704	     -1.84700877	      2.03024753	      2.65913334	    -11.30272982	     11.88918828	     -1.16089377	     -2.07919214	      0.62688314	     -1.75072308	    -11.99882196	     12.95463140	     -3.51409867	     -3.53701521	     -1.46958666	     -5.63647913
      0.20000000	     -1.93982251	      1.05700347	    177.52458314	      0.14160023	      1.08781179	      1.17385143	     -1.79541358	      1.98997777	      2.64766402	    -11.41317436	     11.96946981	     -1.13778035	     -2.04012190	      0.67053116	     -1.67804922	    -12.06744989	     12.96981024	     -3.53955296	     -3.56023681	     -1.49093615	     -5.65426959
      0.21000000	     -1.92264300	      1.02411893	    177.58909552	      0.14158723	      1.08774457	      1.17406046	     -1.73122895	      1.95103075	      2.61855888	    -11.50540964	     12.02215833	     -1.08226310	     -1.97951506	      0.71169292	     -1.58993583	    -12.13347374	     12.96061273	     -3.57744462	     -3.55470393	     -1.50750552	     -5.67822252
      0.22000000	     -1.92990670	      1.00157441	    177.63829871	      0.14152185	      1.08770870	      1.17425917	     -1.71360833	      1.92036642	      2.62001394	    -11.56588656	     12.09481608	     -1.05819217	     -1.96219226	      0.74330314	     -1.52912254	    -12.17661059	     12.98222121	     -3.59157259	     -3.57529803	     -1.51012876	     -5.68779722
      0.23000000	     -1.92800250	      0.97096270	    177.69987315	      0.14141738	      1.08767050	      1.17449096	     -1.69750762	      1.87898850	      2.58709748	    -11.60963867	     12.15822426	     -1.01215262	     -1.94205194	      0.78451010	     -1.45070881	    -12.20824184	     12.98302097	     -3.60678860	     -3.58128023	     -1.52183793	     -5.70673125
      0.24000000	     -1.91949680	      0.94627464	    177.76064501	      0.14127159	      1.08763134	      1.17473455	     -1.69146305	      1.84179261	      2.54977543	    -11.62581476	     12.21373090	     -0.95152309	     -1.92577736	      0.81983734	     -1.37625595	    -12.22512598	     12.98163554	     -3.62261848	     -3.57779226	     -1.52521256	     -5.71999827
      0.25000000	     -1.91032575	      0.93751826	    177.80102503	      0.14109395	      1.08760065	      1.17495365	     -1.70347002	      1.82044405	      2.53185609	    -11.60710294	     12.24081731	     -0.93012639	     -1.91554436	      0.83679412	     -1.34760850	    -12.23694900	     12.98001683	     -3.62685748	     -3.57269793	     -1.51385169	     -5.68920058
      0.26000000	     -1.88888182	      0.90585308	    177.87215246	      0.14090750	      1.08755074	      1.17525069	     -1.70129016	      1.77093233	      2.46053705	    -11.59504908	     12.31822892	     -0.82122822	     -1.90615550	      0.88259600	     -1.24744277	    -12.21758287	     12.97932701	     -3.64605959	     -3.55826677	     -1.52189281	     -5.72440278
      0.27000000	     -1.86050003	      0.89233889	    177.93364812	      0.14068520	      1.08750034	      1.17553524	     -1.70639037	      1.74017295	      2.39202704	    -11.55774904	     12.36798962	     -0.69698182	     -1.89041420	      0.90707478	     -1.18149538	    -12.20305689	     12.97180564	     -3.66644156	     -3.53369245	     -1.51257975	     -5.72437191
      0.28000000	     -1.82842151	      0.88197649	    177.98810254	      0.14047218	      1.08744606	      1.17582324	     -1.70943758	      1.71206860	      2.32914600	    -11.51471418	     12.42455047	     -0.58680299	     -1.87098367	      0.92899535	     -1.12193353	    -12.18915532	     12.97428027	     -3.68230319	     -3.51309888	     -1.49969433	     -5.71357147
      0.29000000	     -1.79042304	      0.87416676	    178.05057242	      0.14025681	      1.08738441	      1.17613908	     -1.70601380	      1.68546079	      2.24908915	    -11.47260038	     12.48050003	     -0.46540491	     -1.84316932	      0.94873274	     -1.05018541	    -12.17860238	     12.97225195	     -3.69623801	     -3.49010300	     -1.48261039	     -5.70996086
      0.30000000	     -1.74509633	      0.86788555	    178.12125531	      0.14007024	      1.08731303	      1.17648122	     -1.68706453	      1.65971021	      2.15522163	    -11.44203474	     12.52500039	     -0.30616881	     -1.79471715	      0.96639881	     -0.97725948	    -12.18833824	     12.97098983	     -3.71555743	     -3.46937563	     -1.46510676	     -5.70781622
      0.31000000	     -1.69592368	      0.86465149	    178.19325230	      0.13987964	      1.08723297	      1.17684023	     -1.66271457	      1.63748361	      2.06568333	    -11.41525530	     12.58051658	     -0.18675714	     -1.74639096	      0.98210652	     -0.89318356	    -12.19059125	     12.97875224	     -3.73008397	     -3.45056125	     -1.44277625	     -5.71297348
      0.32000000	     -1.64076470	      0.86292437	    178.27224648	      0.13970215	      1.08714121	      1.17722923	     -1.62368232	      1.61670160	      1.97026078	    -11.40402395	     12.62997769	     -0.07455502	     -1.68549012	      0.99711324	     -0.80112396	    -12.20229848	     12.98804145	     -3.74644875	     -3.43383385	     -1.41805895	     -5.72661437
